<svg xmlns="http://www.w3.org/2000/svg" xmlns:xlink="http://www.w3.org/1999/xlink">

<symbol id="dribbble" fill-rule="evenodd" clip-rule="evenodd" stroke-linejoin="round" stroke-miterlimit="1.414"><path d="M8 16c-4.41 0-8-3.59-8-8s3.59-8 8-8 8 3.59 8 8-3.59 8-8 8zm6.747-6.905c-.234-.074-2.115-.635-4.257-.292.894 2.456 1.258 4.456 1.328 4.872 1.533-1.037 2.624-2.68 2.93-4.58zM10.67 14.3c-.102-.6-.5-2.688-1.46-5.18l-.044.014C5.312 10.477 3.93 13.15 3.806 13.4c1.158.905 2.614 1.444 4.194 1.444.947 0 1.85-.194 2.67-.543zm-7.747-1.72c.155-.266 2.03-3.37 5.555-4.51.09-.03.18-.056.27-.08-.173-.39-.36-.778-.555-1.16-3.413 1.02-6.723.977-7.023.97l-.003.208c0 1.755.665 3.358 1.756 4.57zM1.31 6.61c.307.005 3.122.017 6.318-.832-1.132-2.012-2.353-3.705-2.533-3.952-1.912.902-3.34 2.664-3.784 4.785zM6.4 1.368c.188.253 1.43 1.943 2.548 4 2.43-.91 3.46-2.293 3.582-2.468C11.323 1.827 9.736 1.176 8 1.176c-.55 0-1.087.066-1.6.19zm6.89 2.322c-.145.194-1.29 1.662-3.816 2.694.16.325.31.656.453.99.05.117.1.235.147.352 2.274-.286 4.533.172 4.758.22-.015-1.613-.59-3.094-1.543-4.257z"/></symbol>

<symbol id="facebook" fill-rule="evenodd" clip-rule="evenodd" stroke-linejoin="round" stroke-miterlimit="1.414"><path d="M15.117 0H.883C.395 0 0 .395 0 .883v14.234c0 .488.395.883.883.883h7.663V9.804H6.46V7.39h2.086V5.607c0-2.066 1.262-3.19 3.106-3.19.883 0 1.642.064 1.863.094v2.16h-1.28c-1 0-1.195.48-1.195 1.18v1.54h2.39l-.31 2.42h-2.08V16h4.077c.488 0 .883-.395.883-.883V.883C16 .395 15.605 0 15.117 0" fill-rule="nonzero"/></symbol>

<symbol id="flickr" fill-rule="evenodd" clip-rule="evenodd" stroke-linejoin="round" stroke-miterlimit="1.414"><path d="M0 8c0 2.05 1.662 3.71 3.71 3.71 2.05 0 3.713-1.66 3.713-3.71S5.76 4.29 3.71 4.29C1.663 4.29 0 5.95 0 8zm8.577 0c0 2.05 1.662 3.71 3.712 3.71C14.33 11.71 16 10.05 16 8s-1.662-3.71-3.71-3.71c-2.05 0-3.713 1.66-3.713 3.71z"/></symbol>

<symbol id="github" fill-rule="evenodd" clip-rule="evenodd" stroke-linejoin="round" stroke-miterlimit="1.414"><path d="M8 0C3.58 0 0 3.582 0 8c0 3.535 2.292 6.533 5.47 7.59.4.075.547-.172.547-.385 0-.19-.007-.693-.01-1.36-2.226.483-2.695-1.073-2.695-1.073-.364-.924-.89-1.17-.89-1.17-.725-.496.056-.486.056-.486.803.056 1.225.824 1.225.824.714 1.223 1.873.87 2.33.665.072-.517.278-.87.507-1.07-1.777-.2-3.644-.888-3.644-3.953 0-.873.31-1.587.823-2.147-.09-.202-.36-1.015.07-2.117 0 0 .67-.215 2.2.82.64-.178 1.32-.266 2-.27.68.004 1.36.092 2 .27 1.52-1.035 2.19-.82 2.19-.82.43 1.102.16 1.915.08 2.117.51.56.82 1.274.82 2.147 0 3.073-1.87 3.75-3.65 3.947.28.24.54.73.54 1.48 0 1.07-.01 1.93-.01 2.19 0 .21.14.46.55.38C13.71 14.53 16 11.53 16 8c0-4.418-3.582-8-8-8"/></symbol>

<symbol id="googleplus" fill-rule="evenodd" clip-rule="evenodd" stroke-linejoin="round" stroke-miterlimit="1.414"><path d="M5.09 7.273v1.745h2.89c-.116.75-.873 2.197-2.887 2.197-1.737 0-3.155-1.44-3.155-3.215S3.353 4.785 5.09 4.785c.99 0 1.652.422 2.03.786l1.382-1.33c-.887-.83-2.037-1.33-3.41-1.33C2.275 2.91 0 5.19 0 8s2.276 5.09 5.09 5.09c2.94 0 4.888-2.065 4.888-4.974 0-.334-.036-.59-.08-.843H5.09zm10.91 0h-1.455V5.818H13.09v1.455h-1.454v1.454h1.455v1.455h1.46V8.727H16"/></symbol>

<symbol id="instagram" fill-rule="evenodd" clip-rule="evenodd" stroke-linejoin="round" stroke-miterlimit="1.414"><path d="M8 0C5.827 0 5.555.01 4.702.048 3.85.088 3.27.222 2.76.42c-.526.204-.973.478-1.417.923-.445.444-.72.89-.923 1.417-.198.51-.333 1.09-.372 1.942C.008 5.555 0 5.827 0 8s.01 2.445.048 3.298c.04.852.174 1.433.372 1.942.204.526.478.973.923 1.417.444.445.89.72 1.417.923.51.198 1.09.333 1.942.372.853.04 1.125.048 3.298.048s2.445-.01 3.298-.048c.852-.04 1.433-.174 1.942-.372.526-.204.973-.478 1.417-.923.445-.444.72-.89.923-1.417.198-.51.333-1.09.372-1.942.04-.853.048-1.125.048-3.298s-.01-2.445-.048-3.298c-.04-.852-.174-1.433-.372-1.942-.204-.526-.478-.973-.923-1.417-.444-.445-.89-.72-1.417-.923-.51-.198-1.09-.333-1.942-.372C10.445.008 10.173 0 8 0zm0 1.44c2.136 0 2.39.01 3.233.048.78.036 1.203.166 1.485.276.374.145.64.318.92.598.28.28.453.546.598.92.11.282.24.705.276 1.485.038.844.047 1.097.047 3.233s-.01 2.39-.05 3.233c-.04.78-.17 1.203-.28 1.485-.15.374-.32.64-.6.92-.28.28-.55.453-.92.598-.28.11-.71.24-1.49.276-.85.038-1.1.047-3.24.047s-2.39-.01-3.24-.05c-.78-.04-1.21-.17-1.49-.28-.38-.15-.64-.32-.92-.6-.28-.28-.46-.55-.6-.92-.11-.28-.24-.71-.28-1.49-.03-.84-.04-1.1-.04-3.23s.01-2.39.04-3.24c.04-.78.17-1.21.28-1.49.14-.38.32-.64.6-.92.28-.28.54-.46.92-.6.28-.11.7-.24 1.48-.28.85-.03 1.1-.04 3.24-.04zm0 2.452c-2.27 0-4.108 1.84-4.108 4.108 0 2.27 1.84 4.108 4.108 4.108 2.27 0 4.108-1.84 4.108-4.108 0-2.27-1.84-4.108-4.108-4.108zm0 6.775c-1.473 0-2.667-1.194-2.667-2.667 0-1.473 1.194-2.667 2.667-2.667 1.473 0 2.667 1.194 2.667 2.667 0 1.473-1.194 2.667-2.667 2.667zm5.23-6.937c0 .53-.43.96-.96.96s-.96-.43-.96-.96.43-.96.96-.96.96.43.96.96z"/></symbol>

<symbol id="linkedin" fill-rule="evenodd" clip-rule="evenodd" stroke-linejoin="round" stroke-miterlimit="1.414"><path d="M13.632 13.635h-2.37V9.922c0-.886-.018-2.025-1.234-2.025-1.235 0-1.424.964-1.424 1.96v3.778h-2.37V6H8.51v1.04h.03c.318-.6 1.092-1.233 2.247-1.233 2.4 0 2.845 1.58 2.845 3.637v4.188zM3.558 4.955c-.762 0-1.376-.617-1.376-1.377 0-.758.614-1.375 1.376-1.375.76 0 1.376.617 1.376 1.375 0 .76-.617 1.377-1.376 1.377zm1.188 8.68H2.37V6h2.376v7.635zM14.816 0H1.18C.528 0 0 .516 0 1.153v13.694C0 15.484.528 16 1.18 16h13.635c.652 0 1.185-.516 1.185-1.153V1.153C16 .516 15.467 0 14.815 0z" fill-rule="nonzero"/></symbol>

<symbol id="pinterest" fill-rule="evenodd" clip-rule="evenodd" stroke-linejoin="round" stroke-miterlimit="1.414"><path d="M8 0C3.582 0 0 3.582 0 8c0 3.39 2.108 6.285 5.084 7.45-.07-.633-.133-1.604.028-2.295.146-.625.938-3.977.938-3.977s-.24-.48-.24-1.188c0-1.11.646-1.943 1.448-1.943.683 0 1.012.513 1.012 1.127 0 .687-.436 1.713-.662 2.664-.19.797.4 1.445 1.185 1.445 1.42 0 2.514-1.498 2.514-3.662 0-1.91-1.376-3.25-3.342-3.25-2.276 0-3.61 1.71-3.61 3.47 0 .69.263 1.43.593 1.83.066.08.075.15.057.23-.06.25-.196.8-.223.91-.035.15-.115.18-.268.11C3.516 10.46 2.89 9 2.89 7.82c0-2.52 1.834-4.84 5.287-4.84 2.774 0 4.932 1.98 4.932 4.62 0 2.76-1.74 4.98-4.16 4.98-.81 0-1.57-.42-1.84-.92l-.5 1.9c-.18.698-.67 1.57-1 2.1.75.23 1.54.357 2.37.357 4.41 0 8-3.58 8-8s-3.59-8-8-8z" fill-rule="nonzero"/></symbol>

<symbol id="rss" fill-rule="evenodd" clip-rule="evenodd" stroke-linejoin="round" stroke-miterlimit="1.414"><path d="M12.8 16C12.8 8.978 7.022 3.2 0 3.2V0c8.777 0 16 7.223 16 16h-3.2zM2.194 11.61c1.21 0 2.195.985 2.195 2.196 0 1.21-.99 2.194-2.2 2.194C.98 16 0 15.017 0 13.806c0-1.21.983-2.195 2.194-2.195zM10.606 16h-3.11c0-4.113-3.383-7.497-7.496-7.497v-3.11c5.818 0 10.606 4.79 10.606 10.607z"/></symbol>

<symbol id="stackoverflow" class="svg-icon" xmlns="http://www.w3.org/2000/svg" fill-rule="evenodd" clip-rule="evenodd" stroke-linejoin="round" stroke-miterlimit="1.414"><path d="M12.658 14.577v-4.27h1.423V16H1.23v-5.693h1.42v4.27h10.006zm-8.583-1.423h7.16V11.73h-7.16v1.424zm.173-3.235l6.987 1.46.3-1.38L4.55 8.54l-.302 1.38zm.906-3.37l6.47 3.02.602-1.3-6.47-3.02-.602 1.29zm1.81-3.19l5.478 4.57.906-1.08L7.87 2.28l-.9 1.078zM10.502 0L9.338.863l4.27 5.735 1.164-.862L10.5 0z"/></symbol>

<symbol id="twitter" fill-rule="evenodd" clip-rule="evenodd" stroke-linejoin="round" stroke-miterlimit="1.414"><path d="M16 3.038c-.59.26-1.22.437-1.885.517.677-.407 1.198-1.05 1.443-1.816-.634.37-1.337.64-2.085.79-.598-.64-1.45-1.04-2.396-1.04-1.812 0-3.282 1.47-3.282 3.28 0 .26.03.51.085.75-2.728-.13-5.147-1.44-6.766-3.42C.83 2.58.67 3.14.67 3.75c0 1.14.58 2.143 1.46 2.732-.538-.017-1.045-.165-1.487-.41v.04c0 1.59 1.13 2.918 2.633 3.22-.276.074-.566.114-.865.114-.21 0-.41-.02-.61-.058.42 1.304 1.63 2.253 3.07 2.28-1.12.88-2.54 1.404-4.07 1.404-.26 0-.52-.015-.78-.045 1.46.93 3.18 1.474 5.04 1.474 6.04 0 9.34-5 9.34-9.33 0-.14 0-.28-.01-.42.64-.46 1.2-1.04 1.64-1.7z" fill-rule="nonzero"/></symbol>

<symbol id="youtube" fill-rule="evenodd" clip-rule="evenodd" stroke-linejoin="round" stroke-miterlimit="1.414"><path d="M0 7.345c0-1.294.16-2.59.16-2.59s.156-1.1.636-1.587c.608-.637 1.408-.617 1.764-.684C3.84 2.36 8 2.324 8 2.324s3.362.004 5.6.166c.314.038.996.04 1.604.678.48.486.636 1.588.636 1.588S16 6.05 16 7.346v1.258c0 1.296-.16 2.59-.16 2.59s-.156 1.102-.636 1.588c-.608.638-1.29.64-1.604.678-2.238.162-5.6.166-5.6.166s-4.16-.037-5.44-.16c-.356-.067-1.156-.047-1.764-.684-.48-.487-.636-1.587-.636-1.587S0 9.9 0 8.605v-1.26zm6.348 2.73V5.58l4.323 2.255-4.32 2.24z"/></symbol>

<symbol id="mastodon" fill-rule="evenodd" clip-rule="evenodd" stroke-linejoin="round" stroke-miterlimit="1.414">
  <path transform="scale(0.07)" d="M211.80734 139.0875c-3.18125 16.36625-28.4925 34.2775-57.5625 37.74875-15.15875 1.80875-30.08375 3.47125-45.99875 2.74125-26.0275-1.1925-46.565-6.2125-46.565-6.2125 0 2.53375.15625 4.94625.46875 7.2025 3.38375 25.68625 25.47 27.225 46.39125 27.9425 21.11625.7225 39.91875-5.20625 39.91875-5.20625l.8675 19.09s-14.77 7.93125-41.08125 9.39c-14.50875.7975-32.52375-.365-53.50625-5.91875C9.23234 213.82 1.40609 165.31125.20859 116.09125c-.365-14.61375-.14-28.39375-.14-39.91875 0-50.33 32.97625-65.0825 32.97625-65.0825C49.67234 3.45375 78.20359.2425 107.86484 0h.72875c29.66125.2425 58.21125 3.45375 74.8375 11.09 0 0 32.975 14.7525 32.975 65.0825 0 0 .41375 37.13375-4.59875 62.915"/>
  <path transform="scale(0.07)" fill="#FFF" d="M177.50984 80.077v60.94125h-24.14375v-59.15c0-12.46875-5.24625-18.7975-15.74-18.7975-11.6025 0-17.4175 7.5075-17.4175 22.3525v32.37625H96.20734V85.42325c0-14.845-5.81625-22.3525-17.41875-22.3525-10.49375 0-15.74 6.32875-15.74 18.7975v59.15H38.90484V80.077c0-12.455 3.17125-22.3525 9.54125-29.675 6.56875-7.3225 15.17125-11.07625 25.85-11.07625 12.355 0 21.71125 4.74875 27.8975 14.2475l6.01375 10.08125 6.015-10.08125c6.185-9.49875 15.54125-14.2475 27.8975-14.2475 10.6775 0 19.28 3.75375 25.85 11.07625 6.36875 7.3225 9.54 17.22 9.54 29.675"/>
</symbol>

<symbol id="postman" viewBox="0 0 16 16">
<path style=" stroke:none;fill-rule:nonzero;fill:rgb(100%,42.352941%,21.568627%);fill-opacity:1;" d="M 15.933594 9.015625 C 16.496094 4.632812 13.398438 0.625 9.023438 0.0664062 C 4.648438 -0.496094 0.625 2.601562 0.0664062 6.976562 C -0.496094 11.351562 2.601562 15.367188 6.976562 15.933594 C 11.359375 16.496094 15.367188 13.398438 15.933594 9.015625 Z M 15.933594 9.015625 "/>
<path style=" stroke:none;fill-rule:nonzero;fill:rgb(100%,100%,100%);fill-opacity:1;" d="M 10.886719 5.136719 L 7.511719 8.511719 L 6.558594 7.558594 C 9.878906 4.242188 10.207031 4.527344 10.886719 5.136719 Z M 10.886719 5.136719 "/>
<path style=" stroke:none;fill-rule:nonzero;fill:rgb(100%,42.352941%,21.568627%);fill-opacity:1;" d="M 7.511719 8.59375 C 7.488281 8.59375 7.472656 8.582031 7.457031 8.566406 L 6.496094 7.617188 C 6.464844 7.585938 6.464844 7.535156 6.496094 7.503906 C 9.871094 4.128906 10.222656 4.449219 10.933594 5.089844 C 10.953125 5.105469 10.960938 5.121094 10.960938 5.144531 C 10.960938 5.167969 10.953125 5.183594 10.933594 5.199219 L 7.558594 8.566406 C 7.550781 8.582031 7.527344 8.59375 7.511719 8.59375 Z M 6.671875 7.558594 L 7.511719 8.398438 L 10.765625 5.144531 C 10.175781 4.617188 9.777344 4.457031 6.671875 7.558594 Z M 6.671875 7.558594 "/>
<path style=" stroke:none;fill-rule:nonzero;fill:rgb(100%,100%,100%);fill-opacity:1;" d="M 8.480469 9.480469 L 7.558594 8.558594 L 10.933594 5.183594 C 11.839844 6.097656 10.488281 7.574219 8.480469 9.480469 Z M 8.480469 9.480469 "/>
<path style=" stroke:none;fill-rule:nonzero;fill:rgb(100%,42.352941%,21.568627%);fill-opacity:1;" d="M 8.480469 9.558594 C 8.457031 9.558594 8.441406 9.550781 8.425781 9.535156 L 7.503906 8.617188 C 7.488281 8.601562 7.488281 8.582031 7.488281 8.558594 C 7.488281 8.535156 7.496094 8.519531 7.511719 8.503906 L 10.886719 5.128906 C 10.917969 5.097656 10.96875 5.097656 11 5.128906 C 11.207031 5.320312 11.320312 5.59375 11.3125 5.871094 C 11.296875 6.761719 10.289062 7.886719 8.542969 9.535156 C 8.519531 9.550781 8.496094 9.558594 8.480469 9.558594 Z M 7.671875 8.558594 C 8.183594 9.078125 8.398438 9.289062 8.480469 9.367188 C 9.824219 8.089844 11.128906 6.777344 11.136719 5.871094 C 11.144531 5.664062 11.0625 5.457031 10.925781 5.296875 Z M 7.671875 8.558594 "/>
<path style=" stroke:none;fill-rule:nonzero;fill:rgb(100%,100%,100%);fill-opacity:1;" d="M 6.578125 7.585938 L 7.257812 8.265625 C 7.273438 8.28125 7.273438 8.296875 7.257812 8.3125 C 7.25 8.320312 7.25 8.320312 7.238281 8.320312 L 5.832031 8.625 C 5.761719 8.632812 5.695312 8.582031 5.679688 8.511719 C 5.671875 8.472656 5.6875 8.433594 5.710938 8.40625 L 6.527344 7.59375 C 6.542969 7.574219 6.566406 7.566406 6.578125 7.585938 Z M 6.578125 7.585938 "/>
<path style=" stroke:none;fill-rule:nonzero;fill:rgb(100%,42.352941%,21.568627%);fill-opacity:1;" d="M 5.808594 8.703125 C 5.6875 8.703125 5.601562 8.609375 5.601562 8.488281 C 5.601562 8.433594 5.625 8.375 5.664062 8.335938 L 6.480469 7.519531 C 6.527344 7.480469 6.59375 7.480469 6.640625 7.519531 L 7.320312 8.199219 C 7.367188 8.238281 7.367188 8.3125 7.320312 8.359375 C 7.304688 8.375 7.289062 8.382812 7.265625 8.390625 L 5.855469 8.695312 C 5.839844 8.695312 5.824219 8.703125 5.808594 8.703125 Z M 6.550781 7.671875 L 5.769531 8.457031 C 5.753906 8.472656 5.746094 8.496094 5.761719 8.519531 C 5.769531 8.542969 5.792969 8.550781 5.816406 8.542969 L 7.136719 8.257812 Z M 6.550781 7.671875 "/>
<path style=" stroke:none;fill-rule:nonzero;fill:rgb(100%,100%,100%);fill-opacity:1;" d="M 12.671875 3.265625 C 12.160156 2.769531 11.335938 2.785156 10.839844 3.304688 C 10.34375 3.824219 10.359375 4.640625 10.878906 5.136719 C 11.304688 5.542969 11.941406 5.617188 12.445312 5.3125 L 11.535156 4.402344 Z M 12.671875 3.265625 "/>
<path style=" stroke:none;fill-rule:nonzero;fill:rgb(100%,42.352941%,21.568627%);fill-opacity:1;" d="M 11.773438 5.578125 C 11.015625 5.578125 10.398438 4.960938 10.398438 4.199219 C 10.398438 3.441406 11.015625 2.824219 11.773438 2.824219 C 12.128906 2.824219 12.472656 2.960938 12.726562 3.207031 C 12.742188 3.226562 12.75 3.242188 12.75 3.265625 C 12.75 3.289062 12.742188 3.304688 12.726562 3.320312 L 11.648438 4.402344 L 12.496094 5.25 C 12.527344 5.28125 12.527344 5.328125 12.496094 5.359375 C 12.488281 5.367188 12.488281 5.367188 12.480469 5.375 C 12.269531 5.503906 12.023438 5.578125 11.773438 5.578125 Z M 11.773438 2.992188 C 11.101562 2.992188 10.558594 3.535156 10.566406 4.207031 C 10.566406 4.878906 11.113281 5.425781 11.785156 5.417969 C 11.96875 5.417969 12.152344 5.375 12.320312 5.289062 L 11.480469 4.457031 C 11.464844 4.441406 11.457031 4.425781 11.457031 4.402344 C 11.457031 4.375 11.464844 4.359375 11.480469 4.34375 L 12.550781 3.273438 C 12.335938 3.089844 12.0625 2.992188 11.773438 2.992188 Z M 11.773438 2.992188 "/>
<path style=" stroke:none;fill-rule:nonzero;fill:rgb(100%,100%,100%);fill-opacity:1;" d="M 12.695312 3.289062 L 12.679688 3.273438 L 11.535156 4.402344 L 12.4375 5.304688 C 12.527344 5.25 12.613281 5.183594 12.6875 5.113281 C 13.199219 4.609375 13.199219 3.792969 12.695312 3.289062 Z M 12.695312 3.289062 "/>
<path style=" stroke:none;fill-rule:nonzero;fill:rgb(100%,42.352941%,21.568627%);fill-opacity:1;" d="M 12.445312 5.390625 C 12.421875 5.390625 12.40625 5.382812 12.390625 5.367188 L 11.480469 4.457031 C 11.464844 4.441406 11.457031 4.425781 11.457031 4.402344 C 11.457031 4.375 11.464844 4.359375 11.480469 4.34375 L 12.613281 3.207031 C 12.648438 3.175781 12.695312 3.175781 12.726562 3.207031 L 12.75 3.226562 C 13.285156 3.761719 13.285156 4.625 12.757812 5.167969 C 12.679688 5.25 12.589844 5.320312 12.496094 5.375 C 12.472656 5.382812 12.457031 5.390625 12.445312 5.390625 Z M 11.648438 4.402344 L 12.457031 5.207031 C 12.519531 5.167969 12.582031 5.113281 12.632812 5.066406 C 13.085938 4.609375 13.109375 3.863281 12.671875 3.386719 Z M 11.648438 4.402344 "/>
<path style=" stroke:none;fill-rule:nonzero;fill:rgb(100%,100%,100%);fill-opacity:1;" d="M 11.023438 5.28125 C 10.832031 5.089844 10.519531 5.089844 10.328125 5.28125 L 7.3125 8.296875 L 7.816406 8.800781 L 11.007812 6 C 11.214844 5.824219 11.230469 5.511719 11.054688 5.304688 C 11.039062 5.296875 11.03125 5.289062 11.023438 5.28125 Z M 11.023438 5.28125 "/>
<path style=" stroke:none;fill-rule:nonzero;fill:rgb(100%,42.352941%,21.568627%);fill-opacity:1;" d="M 7.808594 8.878906 C 7.785156 8.878906 7.769531 8.871094 7.753906 8.855469 L 7.25 8.351562 C 7.214844 8.320312 7.214844 8.273438 7.25 8.238281 L 10.261719 5.222656 C 10.488281 5 10.847656 5 11.070312 5.222656 C 11.296875 5.449219 11.296875 5.808594 11.070312 6.03125 C 11.0625 6.039062 11.054688 6.046875 11.046875 6.054688 L 7.855469 8.855469 C 7.847656 8.871094 7.832031 8.878906 7.808594 8.878906 Z M 7.425781 8.296875 L 7.816406 8.6875 L 10.953125 5.9375 C 11.128906 5.792969 11.144531 5.527344 11 5.351562 C 10.855469 5.175781 10.589844 5.160156 10.414062 5.304688 C 10.40625 5.3125 10.398438 5.320312 10.382812 5.328125 Z M 7.425781 8.296875 "/>
<path style=" stroke:none;fill-rule:nonzero;fill:rgb(100%,100%,100%);fill-opacity:1;" d="M 5 11.726562 C 4.96875 11.742188 4.953125 11.773438 4.960938 11.808594 L 5.097656 12.382812 C 5.128906 12.464844 5.082031 12.558594 4.992188 12.582031 C 4.929688 12.605469 4.855469 12.582031 4.816406 12.535156 L 3.9375 11.664062 L 6.808594 8.792969 L 7.800781 8.808594 L 8.472656 9.480469 C 8.3125 9.617188 7.34375 10.550781 5 11.726562 Z M 5 11.726562 "/>
<path style=" stroke:none;fill-rule:nonzero;fill:rgb(100%,42.352941%,21.568627%);fill-opacity:1;" d="M 4.9375 12.664062 C 4.871094 12.664062 4.808594 12.640625 4.769531 12.589844 L 3.898438 11.71875 C 3.878906 11.703125 3.871094 11.6875 3.871094 11.664062 C 3.871094 11.640625 3.878906 11.625 3.898438 11.605469 L 6.769531 8.734375 C 6.785156 8.71875 6.808594 8.710938 6.824219 8.710938 L 7.816406 8.726562 C 7.839844 8.726562 7.855469 8.734375 7.871094 8.75 L 8.542969 9.421875 C 8.558594 9.441406 8.566406 9.464844 8.566406 9.488281 C 8.566406 9.511719 8.558594 9.527344 8.535156 9.542969 L 8.480469 9.589844 C 7.632812 10.335938 6.480469 11.078125 5.046875 11.792969 L 5.183594 12.359375 C 5.207031 12.464844 5.160156 12.574219 5.066406 12.632812 C 5.015625 12.65625 4.976562 12.664062 4.9375 12.664062 Z M 4.058594 11.664062 L 4.878906 12.480469 C 4.90625 12.519531 4.953125 12.535156 4.992188 12.511719 C 5.03125 12.488281 5.046875 12.4375 5.023438 12.398438 L 4.886719 11.824219 C 4.871094 11.75 4.90625 11.6875 4.96875 11.65625 C 6.382812 10.945312 7.527344 10.207031 8.367188 9.480469 L 7.777344 8.886719 L 6.855469 8.871094 Z M 4.058594 11.664062 "/>
<path style=" stroke:none;fill-rule:nonzero;fill:rgb(100%,100%,100%);fill-opacity:1;" d="M 3.257812 12.351562 L 3.945312 11.664062 L 4.96875 12.6875 L 3.335938 12.574219 C 3.265625 12.566406 3.21875 12.503906 3.226562 12.429688 C 3.226562 12.398438 3.234375 12.367188 3.257812 12.351562 Z M 3.257812 12.351562 "/>
<path style=" stroke:none;fill-rule:nonzero;fill:rgb(100%,42.352941%,21.568627%);fill-opacity:1;" d="M 4.96875 12.757812 L 3.328125 12.648438 C 3.207031 12.640625 3.128906 12.535156 3.136719 12.414062 C 3.144531 12.367188 3.160156 12.320312 3.199219 12.289062 L 3.890625 11.597656 C 3.921875 11.566406 3.96875 11.566406 4 11.597656 L 5.023438 12.625 C 5.046875 12.648438 5.054688 12.679688 5.039062 12.710938 C 5.023438 12.742188 5 12.757812 4.96875 12.757812 Z M 3.945312 11.773438 L 3.3125 12.40625 C 3.289062 12.421875 3.289062 12.464844 3.3125 12.480469 C 3.320312 12.488281 3.328125 12.496094 3.34375 12.496094 L 4.761719 12.589844 Z M 3.945312 11.773438 "/>
<path style=" stroke:none;fill-rule:nonzero;fill:rgb(100%,42.352941%,21.568627%);fill-opacity:1;" d="M 6.527344 9.160156 C 6.480469 9.160156 6.449219 9.121094 6.449219 9.078125 C 6.449219 9.054688 6.457031 9.039062 6.472656 9.023438 L 7.25 8.246094 C 7.28125 8.214844 7.328125 8.214844 7.359375 8.246094 L 7.863281 8.75 C 7.886719 8.777344 7.894531 8.800781 7.886719 8.832031 C 7.878906 8.855469 7.855469 8.878906 7.824219 8.886719 L 6.542969 9.160156 C 6.535156 9.160156 6.527344 9.160156 6.527344 9.160156 Z M 7.304688 8.414062 L 6.777344 8.945312 L 7.640625 8.761719 Z M 7.304688 8.414062 "/>
<path style=" stroke:none;fill-rule:nonzero;fill:rgb(100%,100%,100%);fill-opacity:1;" d="M 7.800781 8.808594 L 6.921875 9 C 6.855469 9.015625 6.792969 8.976562 6.777344 8.910156 C 6.769531 8.871094 6.777344 8.832031 6.808594 8.800781 L 7.296875 8.3125 Z M 7.800781 8.808594 "/>
<path style=" stroke:none;fill-rule:nonzero;fill:rgb(100%,42.352941%,21.568627%);fill-opacity:1;" d="M 6.902344 9.078125 C 6.792969 9.078125 6.703125 8.992188 6.703125 8.878906 C 6.703125 8.824219 6.726562 8.777344 6.761719 8.734375 L 7.25 8.246094 C 7.28125 8.214844 7.328125 8.214844 7.359375 8.246094 L 7.863281 8.75 C 7.886719 8.777344 7.894531 8.800781 7.886719 8.832031 C 7.878906 8.855469 7.855469 8.878906 7.824219 8.886719 L 6.945312 9.078125 C 6.929688 9.078125 6.914062 9.078125 6.902344 9.078125 Z M 7.304688 8.414062 L 6.871094 8.847656 C 6.855469 8.863281 6.855469 8.878906 6.863281 8.894531 C 6.871094 8.910156 6.886719 8.917969 6.914062 8.917969 L 7.648438 8.761719 Z M 7.304688 8.414062 "/>
<path style=" stroke:none;fill-rule:nonzero;fill:rgb(100%,42.352941%,21.568627%);fill-opacity:1;" d="M 12.703125 4.058594 C 12.6875 4.007812 12.632812 3.984375 12.582031 4 C 12.535156 4.015625 12.511719 4.074219 12.527344 4.121094 C 12.527344 4.128906 12.535156 4.136719 12.535156 4.144531 C 12.582031 4.242188 12.566406 4.359375 12.503906 4.449219 C 12.472656 4.488281 12.480469 4.542969 12.511719 4.578125 C 12.550781 4.609375 12.605469 4.601562 12.640625 4.5625 C 12.757812 4.410156 12.78125 4.214844 12.703125 4.058594 Z M 12.703125 4.058594 "/>
</symbol> 

</svg>
